<svg width="50" height="48" viewBox="0 0 50 48" fill="none" xmlns="http://www.w3.org/2000/svg">
<path d="M49.6918 9.41764C49.5428 9.21354 49.3478 9.04749 49.1226 8.93301C48.8973 8.81852 48.6483 8.75883 48.3956 8.7588H12.2995C12.2295 8.7588 12.1597 8.76305 12.0925 8.77211L10.6069 4.48985C10.531 4.27118 10.4087 4.07152 10.2484 3.90454C10.0881 3.73755 9.89356 3.60719 9.67818 3.52239L2.19143 0.581317C1.36631 0.258273 0.435224 0.66356 0.111173 1.48768C-0.212319 2.31224 0.192857 3.24389 1.01753 3.56794L7.81724 6.23912L16.1402 30.2295C15.7728 30.3575 15.4615 30.6394 15.3198 31.0337L12.9133 37.7183C12.8405 37.9201 12.8174 38.1365 12.846 38.3491C12.8746 38.5618 12.9541 38.7644 13.0776 38.9398C13.2009 39.1152 13.3647 39.2585 13.555 39.3574C13.7453 39.4562 13.9567 39.5079 14.1711 39.508H15.4069C14.6411 40.3602 14.1711 41.4825 14.1711 42.7166C14.1711 45.3705 16.3305 47.5295 18.984 47.5295C21.6375 47.5295 23.7969 45.3705 23.7969 42.7166C23.7969 41.4825 23.3269 40.3602 22.5611 39.508H33.0543C32.2881 40.3602 31.8181 41.4825 31.8181 42.7166C31.8181 45.3705 33.977 47.5295 36.6311 47.5295C39.285 47.5295 41.4439 45.3705 41.4439 42.7166C41.4439 41.4825 40.974 40.3602 40.2083 39.508H41.7114C42.4498 39.508 43.0482 38.9094 43.0482 38.171C43.0482 37.4326 42.4496 36.8342 41.7114 36.8342H16.0734L17.5637 32.6945C17.7562 32.7755 17.9641 32.8234 18.1817 32.8234H41.711C42.0508 32.8235 42.3819 32.7156 42.6564 32.5153C42.931 32.315 43.1347 32.0327 43.2384 31.709L49.923 10.853C50.0002 10.6125 50.0196 10.3571 49.9794 10.1076C49.9392 9.85819 49.8407 9.62177 49.6918 9.41764ZM18.984 44.8556C17.8043 44.8556 16.845 43.8963 16.845 42.7166C16.845 41.5369 17.8043 40.5775 18.984 40.5775C20.1637 40.5775 21.123 41.5369 21.123 42.7166C21.123 43.8963 20.1637 44.8556 18.984 44.8556ZM36.6309 44.8556C35.4512 44.8556 34.4918 43.8963 34.4918 42.7166C34.4918 41.5369 35.4512 40.5775 36.6309 40.5775C37.8105 40.5775 38.7699 41.5369 38.7699 42.7166C38.7699 43.8963 37.8105 44.8556 36.6309 44.8556ZM45.0403 15.5771H36.8538V11.9674H46.197L45.0403 15.5771ZM42.683 22.93H36.8538V18.7856H44.0115L42.683 22.93ZM26.2474 22.93V18.7856H33.6452V22.93H26.2474ZM33.6452 26.1388V29.6148H26.2474V26.1388H33.6452ZM15.5663 18.7856H23.0391V22.93H17.0042L15.5663 18.7856ZM26.2474 15.5771V11.9674H33.6452V15.5771H26.2474ZM23.039 11.9674V15.5771H14.4528L13.2006 11.9674H23.039ZM18.1176 26.1388H23.039V29.6148H19.3234L18.1176 26.1388ZM36.8538 29.6149V26.139H41.6552L40.5413 29.6149H36.8538Z" fill="white"/>
</svg>
